<svg id="computer" xmlns="http://www.w3.org/2000/svg" viewBox="0 0 221.0409 205.593"><defs><style>#computer .a29d7e84-a347-4878-aa25-243d2ee5c557{fill:#fff;}</style></defs><g id="a66a93ae-76be-4894-bfc8-e1e4bf448b5a" data-name="Layer 2"><g id="bc848bc9-f1c5-4a64-8259-09ae822d78a2" data-name="Layer 1"><path class="a29d7e84-a347-4878-aa25-243d2ee5c557" d="M203.04,0H18A18.0046,18.0046,0,0,0,0,18V141.21a18.0046,18.0046,0,0,0,18,18H81.129a114.5748,114.5748,0,0,1-8.2851,34.383H68.3088a6,6,0,0,0,0,12h84.4233a6,6,0,0,0,0-12H148.197a114.57,114.57,0,0,1-8.2851-34.383h63.129a18.0046,18.0046,0,0,0,18-18V18a18.0046,18.0046,0,0,0-18-18ZM18,12H203.04a6.0015,6.0015,0,0,1,6,6v105.597L12,123.6088V18a6.004,6.004,0,0,1,6-6ZM135.258,193.605l-49.464.0117a125.2485,125.2485,0,0,0,7.3827-34.383h34.686a125.2655,125.2655,0,0,0,7.3827,34.383ZM203.04,147.21H18a5.9965,5.9965,0,0,1-6-6v-5.6718l197.04-.0117V141.21a6.0015,6.0015,0,0,1-6,6Z"></path></g></g></svg>