<svg id="ba31edb8-a94d-4619-8505-ed1b99955fb2" preserveAspectRatio="xMidYMid meet" class="map map--1" width="100%" height="100%" data-name="Layer 1" xmlns="http://www.w3.org/2000/svg" xmlns:xlink="http://www.w3.org/1999/xlink" viewBox="0 0 725.852 474.8028">
              <defs>
                <style>
                  .ac7cabde-a3b4-4a5f-bc59-828ff567d059,
                  .b71b5de1-04d7-4835-95ee-b52fd3576096 {
                    fill: #d7d7dc;
                  }
                  .b71b5de1-04d7-4835-95ee-b52fd3576096,
                  .f82cff4a-e4cf-4828-a39b-1f07813a9413 {
                    stroke: #c7c7c9;
                    stroke-width: 5px;
                  }
                  .a2f954d5-3b1f-4eff-a2bf-5098bbe19f2a {
                    clip-path: url("#b7350135-c991-4215-a836-6b454c9b349a");
                  }
                  .bea7803e-b375-4711-886c-aa0f0877e9c8 {
                    fill: #c7c7c9;
                  }
                  .b8ae97a7-a363-42e5-aaee-07f95573c64f {
                    fill: #a6bbda;
                  }
                  .f8c4c368-a895-418b-9166-bcca0fb4e3d0 {
                    fill: #90b000;
                  }
                  .f82cff4a-e4cf-4828-a39b-1f07813a9413 {
                    fill: none;
                  }
		  .f8c4c368-a895-418b-9166-bcca0fb4e3d0:hover {
		    fill: #000!important;
	          }
                </style>
                <clipPath id="b7350135-c991-4215-a836-6b454c9b349a"><polygon class="b71b5de1-04d7-4835-95ee-b52fd3576096" points="279.084 2.499 279.084 40.799 332.645 40.799 332.645 2.499 723.34 2.499 723.34 215.758 523.24 215.758 523.24 250.88 632.059 250.88 632.059 472.299 383.115 472.299 338.792 346.775 262.401 346.775 229.036 472.299 2.5 472.299 2.5 212.246 37.34 212.246 37.34 2.499 279.084 2.499"></polygon></clipPath>
              </defs>
              <polygon class="ac7cabde-a3b4-4a5f-bc59-828ff567d059" points="279.084 2.499 279.084 40.799 332.645 40.799 332.645 2.499 723.34 2.499 723.34 215.758 523.24 215.758 523.24 250.88 632.059 250.88 632.059 472.299 383.115 472.299 338.792 346.775 262.401 346.775 229.036 472.299 2.5 472.299 2.5 212.246 37.34 212.246 37.34 2.499 279.084 2.499"></polygon>
              <g class="a2f954d5-3b1f-4eff-a2bf-5098bbe19f2a">
                <polygon class="bea7803e-b375-4711-886c-aa0f0877e9c8 map__space" data-level="1" data-space="1.1" points="415.952 -48.844 31.166 -48.844 31.166 166.338 276.952 166.338 331.391 94.848 415.952 94.848 415.952 -48.844" style=""></polygon>
                <polygon class="bea7803e-b375-4711-886c-aa0f0877e9c8 map__space" data-level="1" data-space="1.5" points="303.871 291.82 126.938 291.82 78.202 355.822 2.5 355.822 2.5 484.46 303.871 484.46 303.871 291.82" style=""></polygon>
                <circle class="bea7803e-b375-4711-886c-aa0f0877e9c8 map__space" data-space="1.4" data-level="1" cx="446.3098" cy="303.0462" r="56.5971" style=""></circle>
                <rect class="b8ae97a7-a363-42e5-aaee-07f95573c64f" x="161.1573" y="198.4571" width="201.7623" height="61.2439" rx="30.6219"></rect>
                <polygon class="bea7803e-b375-4711-886c-aa0f0877e9c8 map__space" data-level="1" data-space="1.2" points="736.968 226.555 551.882 226.555 551.882 180.068 507 136.994 507 70.262 551.882 70.262 551.882 -12.274 736.968 -12.274 736.968 226.555" style=""></polygon>
                <polygon class="bea7803e-b375-4711-886c-aa0f0877e9c8 map__space" data-space="1.3" data-level="1" points="642.488 286.701 551.882 286.701 551.882 357.315 514.464 402.197 434.663 402.197 434.663 494.798 642.488 494.798 642.488 286.701" style=""></polygon>
                <circle class="f8c4c368-a895-418b-9166-bcca0fb4e3d0" cx="331.2704" cy="229.2387" r="11.6492"></circle>
                <circle class="f8c4c368-a895-418b-9166-bcca0fb4e3d0" cx="453.4822" cy="148.4084" r="18.3717"></circle>
                <circle class="f8c4c368-a895-418b-9166-bcca0fb4e3d0" cx="285.1968" cy="229.2387" r="11.6492"></circle>
                <circle class="f8c4c368-a895-418b-9166-bcca0fb4e3d0" cx="239.1232" cy="229.2387" r="11.6492"></circle>
                <circle class="f8c4c368-a895-418b-9166-bcca0fb4e3d0" cx="193.0496" cy="229.2387" r="11.6492"></circle>
                <polygon class="bea7803e-b375-4711-886c-aa0f0877e9c8" points="415.683 166.847 333.778 166.847 360.505 130.847 415.683 130.847 415.683 166.847"></polygon>
                <rect class="bea7803e-b375-4711-886c-aa0f0877e9c8" x="436.3174" y="24.1648" width="35.9999" height="35.9999"></rect>
                <rect class="bea7803e-b375-4711-886c-aa0f0877e9c8" x="26.1968" y="237.3991" width="35.9999" height="88.4498"></rect>
              </g>
              <polygon class="f82cff4a-e4cf-4828-a39b-1f07813a9413 map__outline" points="279.084 2.499 279.084 40.799 332.645 40.799 332.645 2.499 723.34 2.499 723.34 215.758 523.24 215.758 523.24 250.88 632.059 250.88 632.059 472.299 383.115 472.299 338.792 346.775 262.401 346.775 229.036 472.299 2.5 472.299 2.5 212.246 37.34 212.246 37.34 2.499 279.084 2.499"></polygon>
            </svg>