<svg xmlns="http://www.w3.org/2000/svg" viewBox="0 0 1074.3145 360.3511"><defs><style>.e871ca36-af81-4baa-bac5-f7f3ee9b9bc9{fill:#ea6852;}.fedf6c47-9da4-48c0-ba7d-9f9b38ac2b3d{fill:#fff;}.a894d74a-3788-435f-bc9e-d7f1d222423f{fill:#f6d44d;}</style></defs><g id="f76c0e71-09f9-4dca-aa3d-203e3b7b2adf" data-name="Layer 2"><g id="ab66ebb1-222c-45fb-8e57-43159bb21d00" data-name="Layer 2"><path class="e871ca36-af81-4baa-bac5-f7f3ee9b9bc9" d="M808.8054,324.1458a4.4057,4.4057,0,0,1,0,6.2918,5.36,5.36,0,0,1-3.5185,1.0888h-3.8311l-.2021.2017v5.2432l-.2022.2016h-2.42l-.2012-.2016V323.2584l.2012-.2017h6.6553A5.3583,5.3583,0,0,1,808.8054,324.1458Zm-2.0166,4.5574a2.1932,2.1932,0,0,0,0-2.8233,2.397,2.397,0,0,0-1.5019-.4033h-3.8311l-.2021.2017v3.2266l.2021.2016h3.8311A2.3951,2.3951,0,0,0,806.7888,328.7032Z"></path><path class="e871ca36-af81-4baa-bac5-f7f3ee9b9bc9" d="M823.84,327.2916a4.0519,4.0519,0,0,1-.8672,2.6518,3.9752,3.9752,0,0,1-2.1582,1.3814v.2016l2.6221,3.4283v2.0166l-.2021.2016h-1.21l-.4033-.2016-4.0332-5.2432-.4034-.2017h-2.0166l-.2011.2017v5.2432l-.2022.2016h-2.42l-.2012-.2016V323.2584l.2012-.2017H819a5.3583,5.3583,0,0,1,3.5185,1.0891A3.8428,3.8428,0,0,1,823.84,327.2916Zm-3.3379,1.4116a2.1932,2.1932,0,0,0,0-2.8233A2.397,2.397,0,0,0,819,325.4766h-3.8321l-.2011.2017v3.2266l.2011.2016H819A2.3951,2.3951,0,0,0,820.5017,328.7032Z"></path><path class="e871ca36-af81-4baa-bac5-f7f3ee9b9bc9" d="M837.3,324.8716a8.3021,8.3021,0,0,1,0,10.4864,7.1851,7.1851,0,0,1-9.9824,0,8.3017,8.3017,0,0,1,0-10.4864,7.1851,7.1851,0,0,1,9.9824,0Zm-2.0166,8.752a6.34,6.34,0,0,0,0-7.0176,3.9884,3.9884,0,0,0-5.9483,0,6.3444,6.3444,0,0,0,0,7.0176,3.9882,3.9882,0,0,0,5.9483,0Z"></path><path class="e871ca36-af81-4baa-bac5-f7f3ee9b9bc9" d="M851.96,324.1458a4.4057,4.4057,0,0,1,0,6.2918,5.3561,5.3561,0,0,1-3.5185,1.0888H844.61l-.2021.2017v5.2432l-.2012.2016h-2.42l-.2022-.2016V323.2584l.2022-.2017h6.6543A5.3546,5.3546,0,0,1,851.96,324.1458Zm-2.0156,4.5574a2.1965,2.1965,0,0,0,0-2.8233,2.4,2.4,0,0,0-1.5029-.4033H844.61l-.2021.2017v3.2266l.2021.2016h3.8311A2.3983,2.3983,0,0,0,849.9441,328.7032Z"></path><path class="e871ca36-af81-4baa-bac5-f7f3ee9b9bc9" d="M866.5906,323.2584v8.47a5.6589,5.6589,0,1,1-11.293,0v-8.47l.2012-.2017h2.42l.2022.2017v8.47q0,3.2267,2.8232,3.2266t2.8233-3.2266v-8.47l.2021-.2017h2.42Z"></path><path class="e871ca36-af81-4baa-bac5-f7f3ee9b9bc9" d="M879.2947,336.9713l-.2012.2016h-9.0752l-.2011-.2016V323.2584l.2011-.2017h2.42l.2021.2017v11.2929l.2012.2017h6.2519l.2012.2017Z"></path><path class="e871ca36-af81-4baa-bac5-f7f3ee9b9bc9" d="M891.7976,333.14a3.7913,3.7913,0,0,1-1.4316,3.0349,6.7813,6.7813,0,0,1-4.416,1.2,6.5014,6.5014,0,0,1-4.376-1.28,4.2362,4.2362,0,0,1-1.4727-3.3577l.2022-.2017h2.42l.2012.2017a1.95,1.95,0,0,0,.7363,1.6638,4.24,4.24,0,0,0,2.49.5545q2.8243,0,2.8233-1.815a1.58,1.58,0,0,0-.7354-1.4822,8.9431,8.9431,0,0,0-2.8945-.736,11.62,11.62,0,0,1-1.9863-.4437,6.5231,6.5231,0,0,1-1.5723-.7561,3.157,3.157,0,0,1-1.1-1.24,3.96,3.96,0,0,1-.3828-1.7949,3.3624,3.3624,0,0,1,1.3711-2.7424,6.4555,6.4555,0,0,1,4.0732-1.0892,6.1606,6.1606,0,0,1,4.0938,1.16,3.853,3.853,0,0,1,1.3515,3.0752l-.2021.2017h-2.42l-.2012-.2017a1.5727,1.5727,0,0,0-.6152-1.3813,4.0532,4.0532,0,0,0-2.208-.4336q-2.42,0-2.42,1.4116a1.3775,1.3775,0,0,0,.7461,1.3108,9.8127,9.8127,0,0,0,2.8838.7058Q891.7972,329.4294,891.7976,333.14Z"></path><path class="e871ca36-af81-4baa-bac5-f7f3ee9b9bc9" d="M904.0984,336.9713l-.2012.2016h-9.4785l-.2012-.2016V323.2584l.2012-.2017h9.4785l.2012.2017v2.0166l-.2012.2016H897.242l-.2012.2017v2.8232l.2012.2017h6.2519l.2012.2017v2.0166l-.2012.2016H897.242l-.2012.2017v3.2265l.2012.2017h6.6552l.2012.2017Zm-2.2178-17.3428-2.2187,2.0166-.4033.2016h-1.8145l-.2021-.2016v-.4033l2.0166-2.0166.4033-.2017h2.0166l.2021.2017Z"></path><path class="e871ca36-af81-4baa-bac5-f7f3ee9b9bc9" d="M922.54,324.1458a4.4057,4.4057,0,0,1,0,6.2918,5.36,5.36,0,0,1-3.5185,1.0888h-3.8321l-.2011.2017v5.2432l-.2022.2016h-2.42l-.2012-.2016V323.2584l.2012-.2017h6.6553A5.3583,5.3583,0,0,1,922.54,324.1458Zm-2.0166,4.5574a2.1932,2.1932,0,0,0,0-2.8233,2.3972,2.3972,0,0,0-1.5019-.4033h-3.8321l-.2011.2017v3.2266l.2011.2016h3.8321A2.3953,2.3953,0,0,0,920.5232,328.7032Z"></path><path class="e871ca36-af81-4baa-bac5-f7f3ee9b9bc9" d="M935.9607,336.9713l-.2021.2016h-1.8145l-.2012-.2016-1.0087-2.6216-.4034-.2017H927.29l-.4043.2017-1.0078,2.6216-.2012.2016h-1.8154l-.2021-.2016v-2.0166l4.6386-11.6963.2012-.2017h2.6221l.2021.2017,4.6377,11.6963Zm-4.2353-5.4449-1.8145-4.84H929.71l-1.8154,4.84.2022.2017h3.4277Z"></path><path class="e871ca36-af81-4baa-bac5-f7f3ee9b9bc9" d="M949.6736,327.2916a4.0519,4.0519,0,0,1-.8672,2.6518,3.9752,3.9752,0,0,1-2.1582,1.3814v.2016l2.6221,3.4283v2.0166l-.2022.2016h-1.21l-.4033-.2016-4.0332-5.2432-.4034-.2017h-2.0166l-.2011.2017v5.2432l-.2022.2016h-2.42l-.2012-.2016V323.2584l.2012-.2017h6.6553a5.3583,5.3583,0,0,1,3.5185,1.0891A3.8428,3.8428,0,0,1,949.6736,327.2916Zm-3.3379,1.4116a2.1932,2.1932,0,0,0,0-2.8233,2.3972,2.3972,0,0,0-1.5019-.4033h-3.8321l-.2011.2017v3.2266l.2011.2016h3.8321A2.3953,2.3953,0,0,0,946.3357,328.7032Z"></path><path class="e871ca36-af81-4baa-bac5-f7f3ee9b9bc9" d="M808.8054,347.1224a4.4056,4.4056,0,0,1,0,6.2917,5.3593,5.3593,0,0,1-3.5185,1.0889h-3.8311l-.2021.2017v5.2431l-.2022.2017h-2.42l-.2012-.2017V346.2349l.2012-.2016h6.6553A5.3583,5.3583,0,0,1,808.8054,347.1224Zm-2.0166,4.5574a2.1932,2.1932,0,0,0,0-2.8233,2.3964,2.3964,0,0,0-1.5019-.4033h-3.8311l-.2021.2017v3.2265l.2021.2017h3.8311A2.3951,2.3951,0,0,0,806.7888,351.68Z"></path><path class="e871ca36-af81-4baa-bac5-f7f3ee9b9bc9" d="M823.1843,347.8482a8.3016,8.3016,0,0,1,0,10.4863,7.1851,7.1851,0,0,1-9.9824,0,8.3019,8.3019,0,0,1,0-10.4863,7.1851,7.1851,0,0,1,9.9824,0Zm-2.0175,8.752a6.34,6.34,0,0,0,0-7.0176,3.9882,3.9882,0,0,0-5.9483,0,6.3444,6.3444,0,0,0,0,7.0176,3.9884,3.9884,0,0,0,5.9483,0Z"></path><path class="e871ca36-af81-4baa-bac5-f7f3ee9b9bc9" d="M833.9226,346.0333h2.6211l.2022.2016,2.6211,9.2764h.2021l2.0166-9.2764.2012-.2016h2.0166l.2012.2016v2.0166L840.98,359.9478l-.2011.2017H838.157l-.2012-.2017-2.622-9.68h-.2012l-2.6221,9.68-.2012.2017h-2.622l-.2012-.2017-3.0254-11.6963v-2.0166l.2022-.2016H828.68l.2011.2016,2.0166,9.2764h.2022l2.6211-9.2764Z"></path><path class="e871ca36-af81-4baa-bac5-f7f3ee9b9bc9" d="M856.3064,359.9478l-.2021.2017h-9.4776l-.2021-.2017V346.2349l.2021-.2016h9.4776l.2021.2016v2.0166l-.2021.2017H849.45l-.2012.2017v2.8232l.2012.2017h6.2519l.2012.2016v2.0166l-.2012.2017H849.45l-.2012.2016v3.2266l.2012.2017h6.6543l.2021.2016Z"></path><path class="e871ca36-af81-4baa-bac5-f7f3ee9b9bc9" d="M870.825,350.2681a4.047,4.047,0,0,1-.8672,2.6519,3.9723,3.9723,0,0,1-2.1572,1.3813v.2017l2.622,3.4282v2.0166l-.2021.2017h-1.21l-.4033-.2017-4.0332-5.2431-.4033-.2017h-2.0166l-.2022.2017v5.2431l-.2011.2017h-2.42l-.2011-.2017V346.2349l.2011-.2016h6.6543a5.36,5.36,0,0,1,3.52,1.0891A3.8452,3.8452,0,0,1,870.825,350.2681Zm-3.3369,1.4117a2.1935,2.1935,0,0,0,0-2.8233,2.3981,2.3981,0,0,0-1.503-.4033h-3.831l-.2022.2017v3.2265l.2022.2017h3.831A2.3968,2.3968,0,0,0,867.4881,351.68Z"></path><path class="e871ca36-af81-4baa-bac5-f7f3ee9b9bc9" d="M883.1267,359.9478l-.2021.2017H873.447l-.2021-.2017V346.2349l.2021-.2016h9.4776l.2021.2016v2.0166l-.2021.2017H876.27l-.2012.2017v2.8232l.2012.2017h6.2519l.2012.2016v2.0166l-.2012.2017H876.27l-.2012.2016v3.2266l.2012.2017h6.6543l.2021.2016Z"></path><path class="e871ca36-af81-4baa-bac5-f7f3ee9b9bc9" d="M895.8406,347.8282a9.44,9.44,0,0,1,0,10.5266q-1.6026,1.7948-5.2529,1.7947h-4.4366l-.2011-.2017V346.2349l.2011-.2016h4.4366Q894.2381,346.0333,895.8406,347.8282Zm-2.0869,8.8125a7.6965,7.6965,0,0,0,0-7.0984,3.5809,3.5809,0,0,0-2.9639-1.0891h-1.8154l-.2012.2017v8.873l.2012.2017H890.79A3.5818,3.5818,0,0,0,893.7537,356.6407Z"></path><path class="e871ca36-af81-4baa-bac5-f7f3ee9b9bc9" d="M915.9968,356.3179a3.4819,3.4819,0,0,1-1.17,2.9038,4.4621,4.4621,0,0,1-2.8633.9278h-6.8564l-.2022-.2017V346.2349l.2022-.2016H911.56a4.5668,4.5668,0,0,1,2.8633.8974,3.2284,3.2284,0,0,1,1.17,2.7325,3.5945,3.5945,0,0,1-.5049,1.926,2.4861,2.4861,0,0,1-1.5117,1.0989v.2016Q915.9969,353.4947,915.9968,356.3179Zm-3.2265-6.2514a1.7309,1.7309,0,0,0-.3731-1.21,1.6278,1.6278,0,0,0-1.24-.4033H907.93l-.2021.2017v2.8232l.2021.2017h3.2266a1.5038,1.5038,0,0,0,1.2295-.4639A1.7421,1.7421,0,0,0,912.77,350.0665Zm.4033,5.8481q0-1.8149-2.0166-1.8149H907.93l-.2021.2016v3.2266l.2021.2017h3.2266Q913.1727,357.73,913.1736,355.9146Z"></path><path class="e871ca36-af81-4baa-bac5-f7f3ee9b9bc9" d="M927.8943,348.2515l-4.0332,6.6548v5.0415l-.2012.2017h-2.42l-.2021-.2017v-5.0415l-4.0332-6.6548v-2.0166l.2021-.2016h1.4111l.4034.2016,3.2265,5.4449h.4033l3.2266-5.4449.4033-.2016h1.4121l.2012.2016Z"></path><path class="fedf6c47-9da4-48c0-ba7d-9f9b38ac2b3d" d="M1073.45,359.7l-.2307-.4952h-.36l-.0312.0312v.464h-.1291v-1.2h.5736a.3016.3016,0,0,1,.3.301v.1024a.3049.3049,0,0,1-.2155.29l.2155.4631V359.7Zm-.6217-1.0394v.3839l.0312.0311h.4133a.1725.1725,0,0,0,.171-.1728v-.1006a.1726.1726,0,0,0-.171-.1728h-.4133Z"></path><path class="fedf6c47-9da4-48c0-ba7d-9f9b38ac2b3d" d="M1073.1077,358.0265a1.0773,1.0773,0,1,1-1.0768,1.0777,1.0791,1.0791,0,0,1,1.0768-1.0777m0-.1291a1.2064,1.2064,0,1,0,1.2068,1.2068,1.2058,1.2058,0,0,0-1.2068-1.2068"></path><polygon class="fedf6c47-9da4-48c0-ba7d-9f9b38ac2b3d" points="996.26 323.591 995.785 323.116 971.012 323.116 970.537 323.591 970.535 359.71 971.012 360.184 995.785 360.184 996.259 359.71 996.259 354.997 995.785 354.523 976.563 354.523 976.197 354.156 976.197 329.144 976.563 328.778 995.785 328.778 996.26 328.301 996.26 323.591"></polygon><polygon class="fedf6c47-9da4-48c0-ba7d-9f9b38ac2b3d" points="995.31 334.279 986.048 341.349 985.535 341.349 980.917 337.82 980.443 338.294 980.443 343.539 985.459 347.372 986.126 347.372 995.785 339.998 995.785 334.753 995.31 334.279"></polygon><path class="fedf6c47-9da4-48c0-ba7d-9f9b38ac2b3d" d="M1059.3122,350.4287c-.0009-5.3893-2.964-8.9679-9.757-10.7741l-7.6274-2.1722c-2.9436-.8417-4.0952-2.3513-4.0952-4.6109a4.101,4.101,0,0,1,4.097-4.0943h6.8659a4.1012,4.1012,0,0,1,4.097,4.0979v.2538l.4765.4756h4.71l.4756-.4756v-.2565a9.756,9.756,0,0,0-9.757-9.7561h-6.87a9.7567,9.7567,0,0,0-9.7561,9.7552c0,5.3893,2.964,8.4665,9.7561,10.2727l7.6257,2.1713c2.9453.8426,4.0969,2.8537,4.0969,5.1132a4.101,4.101,0,0,1-4.0969,4.0943H1041.93a4.101,4.101,0,0,1-4.097-4.0969v-.2548l-.4756-.4756h-4.7106l-.4756.4756.0009.2565a9.7565,9.7565,0,0,0,9.7561,9.757h7.6274a9.7594,9.7594,0,0,0,9.757-9.7561"></path><polygon class="fedf6c47-9da4-48c0-ba7d-9f9b38ac2b3d" points="1068.597 323.116 1063.887 323.116 1063.411 323.591 1063.411 359.708 1063.887 360.184 1068.597 360.184 1069.072 359.708 1069.072 323.591 1068.597 323.116"></polygon><path class="fedf6c47-9da4-48c0-ba7d-9f9b38ac2b3d" d="M1028.6077,332.8724a9.7585,9.7585,0,0,0-9.757-9.757h-17.2855l-.4765.4756v36.1173l.4765.4765,4.71-.0009.4756-.4756V346.0254l.366-.3661h11.7342a9.7584,9.7584,0,0,0,9.757-9.7569Zm-5.6618,3.0282a4.1008,4.1008,0,0,1-4.0961,4.0969h-11.7333l-.366-.366V329.1433l.366-.3661h11.7324a4.101,4.101,0,0,1,4.097,4.097Z"></path><path class="e871ca36-af81-4baa-bac5-f7f3ee9b9bc9" d="M146.4922,278.5774l-2.99,2.99H2.99L0,278.5774V75.2823l2.99-2.99H143.5024l2.99,2.99v29.8964l-2.99,2.99H44.8447l-2.99,2.99v41.8548l2.99,2.99h92.6785l2.99,2.99v29.8963l-2.99,2.99H44.8447l-2.99,2.99v47.8342l2.99,2.9895h98.6577l2.99,2.99Z"></path><polygon class="e871ca36-af81-4baa-bac5-f7f3ee9b9bc9" points="376.711 2.99 373.722 0 346.815 0 343.825 2.99 263.085 221.774 260.095 221.774 206.282 75.282 203.292 72.293 176.386 72.293 173.396 75.282 173.396 105.179 239.168 278.577 242.158 281.567 281.023 281.567 284.013 278.577 376.711 32.886 376.711 2.99"></polygon><path class="e871ca36-af81-4baa-bac5-f7f3ee9b9bc9" d="M514.363,174.792q27.6493,29.8986,27.6541,77.7305,0,47.8364-27.6541,77.73-27.6566,29.8986-73.9934,29.8963-46.344,0-73.9936-29.8963-27.6562-29.8915-27.6541-77.73,0-47.83,27.6541-77.73,27.65-29.8919,73.9936-29.8964Q486.7067,144.8956,514.363,174.792Zm-29.8964,129.75q15.6957-19.7314,15.6958-52.0195t-15.6958-52.02q-15.6956-19.7316-44.097-19.7316-28.4062,0-44.0971,19.7316-15.6955,19.7316-15.6956,52.02t15.6956,52.0195q15.6954,19.7318,44.0971,19.7317Q468.7685,324.2737,484.4666,304.542Z"></path><path class="e871ca36-af81-4baa-bac5-f7f3ee9b9bc9" d="M718.4041,278.5774l-2.99,2.99H580.8809l-2.99-2.99V75.2823l2.99-2.99h35.8754l2.99,2.99v167.42l2.99,2.9895h92.6785l2.99,2.99Z"></path><polygon class="a894d74a-3788-435f-bc9e-d7f1d222423f" points="777.162 357.159 777.162 326.284 774.172 323.294 579.386 323.294 576.396 326.284 576.396 357.159 579.386 360.149 774.172 360.149 777.162 357.159"></polygon><path class="e871ca36-af81-4baa-bac5-f7f3ee9b9bc9" d="M888.8132,105.1787,823.0413,278.5774l-2.99,2.99H781.1863l-2.9895-2.99-65.772-173.3987V75.2823l2.99-2.99H742.321l2.99,2.99L799.124,221.7744h2.99L855.9272,75.2823l2.99-2.99h26.9068l2.99,2.99Z"></path><path class="e871ca36-af81-4baa-bac5-f7f3ee9b9bc9" d="M1068.19,278.5774l-2.99,2.99H924.687l-2.99-2.99V75.2823l2.99-2.99H1065.2l2.99,2.99v29.8964l-2.99,2.99H966.542l-2.99,2.99v41.8548l2.99,2.99h92.6785l2.99,2.99v29.8963l-2.99,2.99H966.542l-2.99,2.99v47.8342l2.99,2.9895H1065.2l2.99,2.99Z"></path></g></g></svg>