<svg xmlns="http://www.w3.org/2000/svg" viewBox="0 0 1210.9161 809.8385"><defs><style>.a001919a-77a2-4c27-bc57-e9a3fd3a65c2{fill:#a5d5a1;}.bf5fdae2-8bca-4ffe-9ffe-4919155e977f{fill:#90b000;}.a2dadcbd-7972-47c0-8093-6752abfb7314{fill:#dcdbdb;}.a90a2fe8-2984-4e80-b77f-f64ba7f74235{fill:#bcbcbc;}.b3d7bb20-9954-40b5-b679-e27b54be4526{fill:#189dd1;}.b3a7bc02-efe2-4d49-96d2-1cf127b67afe{fill:#dbdbdb;}</style></defs><g id="ab9b869b-c8ce-4798-8c75-200bbb1317aa" data-name="Layer 2"><g id="a6cc76be-9afe-4c8c-bc3d-7d670f9f952e" data-name="Layer 1"><g id="f31a5fba-9d8b-4650-a3d6-256e43598b1e" data-name="surroundings"><polygon class="a001919a-77a2-4c27-bc57-e9a3fd3a65c2" points="0 586.775 277.572 427.202 338.335 426.714 338.335 603.156 508.805 603.156 508.805 669.6 865.436 669.6 865.292 159.9 1210.916 159.9 1210.916 809.838 0 809.838 0 586.775"/><path class="bf5fdae2-8bca-4ffe-9ffe-4919155e977f" d="M171.9883,680.1425a72.8889,72.8889,0,1,1-88.8689-52.23A72.8888,72.8888,0,0,1,171.9883,680.1425Z"/><circle class="bf5fdae2-8bca-4ffe-9ffe-4919155e977f" cx="213.4899" cy="745.8" r="22.5727" transform="translate(-554.6634 637.4671) rotate(-65.9984)"/><circle class="bf5fdae2-8bca-4ffe-9ffe-4919155e977f" cx="275.9435" cy="745.8" r="22.5727" transform="translate(-346.2417 250.5748) rotate(-31.1778)"/><path class="a2dadcbd-7972-47c0-8093-6752abfb7314" d="M1204.2118,45.9355h-1200V0h1200Z"/><path class="a2dadcbd-7972-47c0-8093-6752abfb7314" d="M1204.2118,109.2548h-1200V63.3193h1200Z"/><path class="a90a2fe8-2984-4e80-b77f-f64ba7f74235" d="M1046.5618,603.1563h-143.1V199.8h143.1Z"/><path class="a90a2fe8-2984-4e80-b77f-f64ba7f74235" d="M1204.2118,555.3027h-127V199.8h127Z"/><path class="a90a2fe8-2984-4e80-b77f-f64ba7f74235" d="M865.4365,739.7H766.9952V703.5h98.4413Z"/><path class="a90a2fe8-2984-4e80-b77f-f64ba7f74235" d="M289.0118,238.1h-130.35V143.7h130.35Z"/><path class="a90a2fe8-2984-4e80-b77f-f64ba7f74235" d="M289.0118,409.5469h-43.4V258.1h43.4Z"/><path class="a90a2fe8-2984-4e80-b77f-f64ba7f74235" d="M225.3118,438.5224h-68.8V258.1842h68.8Z"/><path class="a90a2fe8-2984-4e80-b77f-f64ba7f74235" d="M757.953,739.7H659.5118V703.5H757.953Z"/><path class="a90a2fe8-2984-4e80-b77f-f64ba7f74235" d="M865.4365,786.2H766.9952V750h98.4413Z"/><path class="a90a2fe8-2984-4e80-b77f-f64ba7f74235" d="M757.953,786.2H659.5118V750H757.953Z"/><path class="b3d7bb20-9954-40b5-b679-e27b54be4526" d="M922.2323,759.9871c-39.425-41.3487-10.7829-119.9654,31.0009-131.7988,37.0662-10.4731,73.29,34.82,126.699,20.4022,19.3756-5.1686,28.3051-14.8256,53.4091-15.9137,4.0436-.136,40.4359-1.36,53.4091,13.6016,19.5439,22.4425-16.0059,77.6646-64.6975,106.7719C1067.296,785.83,964.69,804.3282,922.2323,759.9871Z"/><circle class="bf5fdae2-8bca-4ffe-9ffe-4919155e977f" cx="1162.2118" cy="159.9" r="30"/><circle class="bf5fdae2-8bca-4ffe-9ffe-4919155e977f" cx="1085.9618" cy="159.9" r="30"/><circle class="bf5fdae2-8bca-4ffe-9ffe-4919155e977f" cx="1162.2118" cy="637.1" r="21.5"/><circle class="bf5fdae2-8bca-4ffe-9ffe-4919155e977f" cx="1009.7118" cy="159.9" r="30" transform="translate(690.1385 1130.9607) rotate(-80.7825)"/><path class="a2dadcbd-7972-47c0-8093-6752abfb7314" d="M641.7118,786.2h-297.2V705.4h297.2Z"/><path class="a2dadcbd-7972-47c0-8093-6752abfb7314" d="M865.4365,686.6H344.5118V644.1H865.4365Z"/><circle class="bf5fdae2-8bca-4ffe-9ffe-4919155e977f" cx="933.4617" cy="159.9" r="30"/><path class="b3a7bc02-efe2-4d49-96d2-1cf127b67afe" d="M134.56,314.5349A156.9161,156.9161,0,0,0,4.2119,159.9V469.17A156.9161,156.9161,0,0,0,134.56,314.5349Z"/></g></g></g></svg>